<?xml version="1.0" encoding="UTF-8" standalone="no"?><!-- Generator: Gravit.io --><svg xmlns="http://www.w3.org/2000/svg" xmlns:xlink="http://www.w3.org/1999/xlink" style="isolation:isolate" viewBox="0 0 71 71" width="71pt" height="71pt"><defs><clipPath id="_clipPath_lpAhBXxch9SMpUUiMdb9bP9l5NryeIKZ"><rect width="71" height="71"/></clipPath></defs><g clip-path="url(#_clipPath_lpAhBXxch9SMpUUiMdb9bP9l5NryeIKZ)"><path d=" M 33.193 42.384 L 33.193 30.023 L 58.766 30.023 L 58.766 61.958 L 58.766 61.958 Q 48.35 65.525 35.868 65.525 L 35.868 65.525 L 35.868 65.525 Q 22.169 65.525 14.692 57.582 L 14.692 57.582 L 14.692 57.582 Q 7.215 49.638 7.215 34.927 L 7.215 34.927 L 7.215 34.927 Q 7.215 20.58 15.401 12.596 L 15.401 12.596 L 15.401 12.596 Q 23.588 4.612 38.34 4.612 L 38.34 4.612 L 38.34 4.612 Q 43.933 4.612 48.897 5.666 L 48.897 5.666 L 48.897 5.666 Q 53.862 6.72 57.55 8.341 L 57.55 8.341 L 52.484 20.904 L 52.484 20.904 Q 46.081 17.743 38.421 17.743 L 38.421 17.743 L 38.421 17.743 Q 31.41 17.743 27.58 22.302 L 27.58 22.302 L 27.58 22.302 Q 23.75 26.862 23.75 35.332 L 23.75 35.332 L 23.75 35.332 Q 23.75 43.64 27.215 47.997 L 27.215 47.997 L 27.215 47.997 Q 30.68 52.354 37.205 52.354 L 37.205 52.354 L 37.205 52.354 Q 40.771 52.354 43.771 51.665 L 43.771 51.665 L 43.771 42.384 L 33.193 42.384 L 33.193 42.384 Z " fill="rgb(255,153,0)"/></g></svg>